<svg width="36" height="32" viewBox="0 0 36 32" fill="none" xmlns="http://www.w3.org/2000/svg">
<path fill-rule="evenodd" clip-rule="evenodd" d="M32.226 0.959904C32.6644 0.774045 33.1442 0.709944 33.6156 0.774271C34.087 0.838598 34.5326 1.029 34.9061 1.32567C35.2796 1.62233 35.5673 2.01441 35.7393 2.46109C35.9114 2.90777 35.9614 3.39272 35.8842 3.86548L31.8605 28.4485C31.4702 30.8198 28.8871 32.1796 26.728 30.9985C24.922 30.0103 22.2396 28.4878 19.8268 26.8992C18.6204 26.104 14.9249 23.5576 15.3791 21.7457C15.7694 20.1964 21.9788 14.3745 25.527 10.9132C26.9196 9.55333 26.2845 8.76886 24.6399 10.0197C20.5559 13.1254 13.9989 17.8483 11.8309 19.1778C9.91844 20.3501 8.92139 20.5502 7.7292 20.3501C5.55415 19.9855 3.537 19.4208 1.89063 18.7329C-0.334089 17.8037 -0.225869 14.723 1.88886 13.8259L32.226 0.959904Z" fill="white"/>
</svg>
