<svg width="41" height="40" viewBox="0 0 41 40" fill="none" xmlns="http://www.w3.org/2000/svg">
<g id="Frame 1000002443">
<path id="Subtract" fill-rule="evenodd" clip-rule="evenodd" d="M35.6715 32.8743C38.6007 29.3954 40.3656 24.9038 40.3656 20C40.3656 8.9543 31.4113 0 20.3656 0C9.31991 0 0.365601 8.9543 0.365601 20C0.365601 31.0457 9.31991 40 20.3656 40C24.3179 40 28.0024 38.8536 31.1047 36.8752L28.587 34.4353C27.1049 32.999 25.0785 32.307 23.061 32.5043C22.7291 32.5755 22.3923 32.6338 22.0514 32.6787C22.0226 32.6859 21.9939 32.6932 21.9652 32.7008L21.9724 32.6888C21.4461 32.7548 20.9098 32.7888 20.3656 32.7888C13.3025 32.7888 7.57679 27.0631 7.57679 20C7.57679 12.9369 13.3025 7.21119 20.3656 7.21119C27.4287 7.21119 33.1544 12.9369 33.1544 20C33.1544 22.886 32.1985 25.5487 30.586 27.6887L30.7652 27.8008L35.6715 32.8743Z" fill="#00E8B5"/>
<circle id="Ellipse 231" cx="20.3636" cy="20" r="8" fill="#C74AE3"/>
</g>
</svg>
