<svg width="35" height="40" viewBox="0 0 35 40" fill="none" xmlns="http://www.w3.org/2000/svg">
<g clip-path="url(#clip0_260_128)">
<path fill-rule="evenodd" clip-rule="evenodd" d="M20.8248 14.2678C22.0553 13.657 23.6206 12.7576 25.1882 11.5253C25.5185 12.2088 25.555 12.8051 25.3844 13.2865C25.2638 13.6258 25.0362 13.921 24.7375 14.1558C24.4139 14.4094 24.0094 14.5945 23.5625 14.6943C22.7145 14.8845 21.7242 14.7733 20.8248 14.2674M21.0382 20.5272L22.6668 21.464C19.3415 23.3201 18.4372 26.7666 17.3631 30.1232C16.2894 26.7666 15.3852 23.3198 12.0598 21.464L13.6884 20.5272C14.0117 20.4055 14.2195 20.0907 14.2031 19.7469C14.0538 16.6031 14.9062 15.2127 16.0563 14.3401C16.4686 14.0275 16.9188 13.8706 17.3631 13.8706C17.8074 13.8706 18.2577 14.0275 18.67 14.3401C19.8197 15.2131 20.6721 16.6031 20.5232 19.7469C20.5068 20.0907 20.715 20.4055 21.0379 20.5272H21.0382ZM17.3635 0C19.2461 0.0504372 21.1336 0.414252 22.7715 1.12223C23.9059 1.61325 24.964 2.26151 25.9226 3.03698C26.3553 3.38708 26.7118 3.7253 27.1043 4.11471C28.1631 4.15105 29.7105 2.97987 30.4289 1.88398C29.1925 5.92006 23.551 10.686 19.6454 12.5099C19.6439 12.5092 19.6428 12.5084 19.6416 12.5077C18.9407 11.9747 18.1523 11.7081 17.3639 11.7081C16.5755 11.7081 15.787 11.9747 15.0861 12.5077C15.085 12.5084 15.0839 12.5095 15.0824 12.5099C11.176 10.686 5.53491 5.91969 4.29846 1.88398C5.01687 2.97987 6.56392 4.15142 7.62273 4.11471C8.01527 3.72567 8.37168 3.38708 8.80443 3.03698C9.76268 2.26151 10.8211 1.61325 11.9555 1.12223C13.5938 0.414252 15.4809 0.0504372 17.3635 0ZM13.9022 14.2678C12.6721 13.657 11.1064 12.7576 9.53886 11.5253C9.20852 12.2088 9.17202 12.8051 9.34222 13.2865C9.46288 13.6258 9.69043 13.921 9.98912 14.1558C10.3131 14.4094 10.7176 14.5945 11.1645 14.6943C12.0125 14.8845 13.0028 14.7733 13.9018 14.2674" fill="white"/>
<path fill-rule="evenodd" clip-rule="evenodd" d="M26.9051 10.0156C27.768 9.14851 28.5285 8.18872 29.1396 7.33203L29.4502 7.91391C30.4498 9.90544 30.9694 11.8892 30.9694 14.1214L30.9671 17.6639L30.9857 19.5C31.058 24.0082 32.0378 28.569 34.2568 32.7431L29.6141 29.0152L26.3293 34.3233L22.8784 31.0883L17.3635 40.0001L11.8487 31.0887L8.39778 34.3237L5.11299 29.0156L0.470337 32.7435C2.68925 28.5694 3.66872 24.0082 3.74135 19.5004L3.75997 17.6642L3.75773 14.1218C3.75773 11.8892 4.27689 9.90581 5.27686 7.91428L5.58709 7.3324C6.19861 8.18872 6.95873 9.14851 7.82164 10.016L7.552 10.5734C7.02837 11.6559 6.85519 12.8664 7.263 14.0179C7.52593 14.7593 8.00562 15.3953 8.62421 15.8808C9.22494 16.3521 9.9359 16.67 10.68 16.8368C11.1649 16.9455 11.6587 16.9904 12.1496 16.9752C12.0353 17.6216 11.985 18.2917 11.982 18.9749L7.60265 21.4937L10.982 23.3799C11.252 23.5309 11.5094 23.7033 11.7507 23.8966C14.5368 26.3876 16.212 33.757 17.3632 37.3566C18.5143 33.757 20.1895 26.3876 22.9756 23.8966C23.2169 23.7037 23.4743 23.5309 23.7443 23.3799L27.1237 21.4937L22.7443 18.9749C22.741 18.2917 22.6911 17.6216 22.5768 16.9752C23.0676 16.9904 23.5614 16.9455 24.0463 16.8368C24.7904 16.67 25.5014 16.3521 26.1021 15.8808C26.7207 15.3953 27.2004 14.7593 27.4633 14.0179C27.8711 12.8668 27.698 11.6563 27.1743 10.5734L26.9047 10.016L26.9051 10.0156Z" fill="white"/>
</g>
<defs>
<clipPath id="clip0_260_128">
<rect width="33.7864" height="40" fill="white" transform="translate(0.470337)"/>
</clipPath>
</defs>
</svg>
