<svg width="35" height="40" viewBox="0 0 35 40" fill="none" xmlns="http://www.w3.org/2000/svg">
<path fill-rule="evenodd" clip-rule="evenodd" d="M12.9378 2.2619C10.5714 3.50312 8.6354 4.55356 8.63587 4.59633C8.63699 4.70653 14.3152 7.60237 14.5167 7.59533C14.6083 7.59228 15.2734 7.28394 15.9946 6.91041L17.306 6.23126L18.738 6.97256L20.1701 7.71402L22.5154 6.65284C26.0492 5.05379 26.4162 4.87856 26.3587 4.81977C26.2824 4.74161 25.0149 4.05605 21.5761 2.23291C19.9142 1.35178 18.3011 0.487939 17.9914 0.313025C17.6815 0.137952 17.386 -0.00268413 17.3343 3.88854e-05C17.2826 0.0027619 15.3041 1.02053 12.9377 2.26174L12.9378 2.2619ZM2.5589 7.67381L0.0955923 8.95523V14.5786C0.0955923 17.6714 0.127883 20.2019 0.167649 20.2019C0.207416 20.2019 1.41918 19.6729 2.8608 19.0262L5.48206 17.8505V11.9232L6.76302 12.6259C7.75003 13.1669 8.73783 13.7067 9.72596 14.2456L11.4079 15.1626L12.1563 14.8217C12.6257 14.6076 13.0942 14.3915 13.5617 14.1732C13.9229 14.0037 14.8097 13.6015 15.5324 13.2792C16.255 12.9568 16.9239 12.6324 17.0187 12.5586C17.1447 12.4604 15.6084 11.6055 11.3363 9.39636C8.1162 7.73116 5.37819 6.37397 5.25189 6.38054C5.12559 6.38711 3.91382 6.96887 2.5589 7.67365V7.67381ZM26.8024 8.03357C25.1247 8.79618 23.7509 9.45066 23.7493 9.48798C23.7478 9.5253 24.6621 10.0728 25.7813 10.7045C26.9004 11.3364 27.8161 11.8871 27.8161 11.9286C27.8161 11.9701 26.8258 12.4532 25.6156 13.0026C24.4051 13.5518 21.3458 14.9431 18.8168 16.0943L10.3428 19.9514C8.21117 20.9218 6.2898 21.7963 6.07299 21.8952C1.71902 23.8799 0.522368 24.4306 0.358052 24.5251C0.192782 24.6203 0.155401 25.1732 0.125974 27.9484L0.0908203 31.2585L2.29373 32.3887L4.49649 33.5189L7.55104 32.1308C9.2311 31.3674 10.6056 30.7028 10.6056 30.6538C10.6056 30.6048 10.2951 30.4014 9.91588 30.201C9.53651 30.0006 8.75311 29.5572 8.17506 29.2153C7.59701 28.8733 7.02071 28.5597 6.89409 28.518C6.76764 28.4765 6.66599 28.404 6.66806 28.3565C6.67013 28.3093 8.0152 27.666 9.65692 26.9268C12.8456 25.4911 15.2858 24.3846 20.5247 21.9991C22.8672 20.9325 25.2103 19.867 27.5533 18.8015C29.6126 17.8654 32.007 16.7724 32.8741 16.3722L34.4506 15.6449L34.4856 12.2972L34.5208 8.94963L32.2865 7.79491C31.0576 7.1598 30.0073 6.64179 29.9522 6.64371C29.8972 6.64548 28.4796 7.27097 26.8021 8.03373L26.8024 8.03357ZM33.8522 20.1108C33.5229 20.2727 32.8727 20.5759 32.4071 20.7845C31.9415 20.993 31.058 21.3944 30.4437 21.6767L29.3271 22.1896L29.3016 25.1285C29.2876 26.7448 29.2285 28.0602 29.1702 28.0517C29.0381 28.0319 26.9451 26.951 24.8412 25.8158C23.3228 24.9965 23.2274 24.964 22.8706 25.142C22.6643 25.2449 21.4313 25.8017 20.1307 26.3795C18.83 26.9572 17.7235 27.4677 17.6713 27.5139C17.6195 27.56 20.2371 28.9886 23.4886 30.6889L29.4001 33.7802L31.9254 32.4646C33.3142 31.7413 34.4952 31.0813 34.5496 30.9984C34.672 30.8117 34.6615 19.7906 34.5389 19.8055C34.4904 19.8114 34.1813 19.9487 33.8521 20.1106L33.8522 20.1108ZM19.8679 33.0469C19.4298 33.2365 18.9919 33.4265 18.5541 33.6166C17.2321 34.1926 17.4911 34.2117 15.9183 33.4233C14.8706 32.8982 14.4191 32.7361 14.2231 32.8148C14.0761 32.8737 12.8107 33.447 11.4111 34.0887C10.0115 34.7303 8.81785 35.2552 8.75851 35.2552C8.17124 35.2552 9.14759 35.8426 12.9146 37.7561L17.3325 40L19.1914 39.0759C20.2137 38.5677 22.2758 37.5498 23.7739 36.8142C25.2718 36.0784 26.479 35.4572 26.4564 35.4338C26.4337 35.4104 25.1785 34.7614 23.667 33.9916L20.9188 32.592L19.8679 33.0472V33.0469Z" fill="white"/>
</svg>
