<svg width="40" height="40" viewBox="0 0 40 40" fill="none" xmlns="http://www.w3.org/2000/svg">
<path fill-rule="evenodd" clip-rule="evenodd" d="M5.15902 11.7954C5.15902 8.13023 8.13023 5.15902 11.7954 5.15902H28.3864C32.0516 5.15902 35.0228 8.13023 35.0228 11.7954V28.3864C35.0228 32.0516 32.0516 35.0228 28.3864 35.0228H11.7954C8.13023 35.0228 5.15902 32.0516 5.15902 28.3864V11.7954ZM11.7954 1.84082C6.29764 1.84082 1.84082 6.29764 1.84082 11.7954V28.3864C1.84082 33.8842 6.29764 38.341 11.7954 38.341H28.3864C33.8842 38.341 38.341 33.8842 38.341 28.3864V11.7954C38.341 6.29764 33.8842 1.84082 28.3864 1.84082H11.7954ZM29.2159 9.30664C28.2997 9.30664 27.5568 10.0494 27.5568 10.9657C27.5568 11.882 28.2997 12.6248 29.2159 12.6248H29.2325C30.1488 12.6248 30.8916 11.882 30.8916 10.9657C30.8916 10.0494 30.1488 9.30664 29.2325 9.30664H29.2159ZM17.8703 15.601C18.7996 15.1189 19.8572 14.942 20.8928 15.0955C21.9491 15.2522 22.9271 15.7444 23.6822 16.4995C24.4373 17.2546 24.9295 18.2326 25.0861 19.2889C25.2397 20.3245 25.0628 21.3821 24.5807 22.3114C24.0985 23.2407 23.3356 23.9942 22.4004 24.4649C21.4653 24.9356 20.4056 25.0994 19.3719 24.9331C18.3383 24.7668 17.3835 24.2788 16.6432 23.5385C15.9029 22.7982 15.4149 21.8433 15.2486 20.8097C15.0823 19.7761 15.2461 18.7164 15.7168 17.7813C16.1875 16.8461 16.941 16.0832 17.8703 15.601ZM21.3795 11.8132C19.6535 11.5573 17.8908 11.8521 16.342 12.6557C14.7933 13.4594 13.5373 14.7309 12.7529 16.2894C11.9684 17.848 11.6953 19.6142 11.9726 21.3369C12.2498 23.0596 13.0631 24.651 14.2969 25.8848C15.5307 27.1186 17.1221 27.9319 18.8448 28.2091C20.5675 28.4863 22.3337 28.2133 23.8923 27.4288C25.4508 26.6444 26.7223 25.3884 27.526 23.8397C28.3296 22.2909 28.6244 20.5282 28.3685 18.8022C28.1074 17.0416 27.287 15.4117 26.0285 14.1532C24.77 12.8947 23.1401 12.0743 21.3795 11.8132Z" fill="#F8F8F8"/>
</svg>
