<svg width="106" height="27" viewBox="0 0 106 27" fill="none" xmlns="http://www.w3.org/2000/svg">
<path d="M9.74208 8.9043L17.0148 21.0764H2.46934L9.74208 8.9043Z" fill="#010101"/>
<path d="M21.8155 15.1309L15.8502 5.29407L27.7808 5.29407L21.8155 15.1309Z" fill="#010101"/>
<path d="M35.0802 13.71C35.0802 12.6213 35.3256 11.663 35.8162 10.835C36.3222 10.007 37.0046 9.363 37.8632 8.903C38.7219 8.42767 39.6956 8.19 40.7842 8.19C41.8729 8.19 42.8389 8.42767 43.6822 8.903C44.5409 9.363 45.2232 10.007 45.7292 10.835C46.2352 11.663 46.4882 12.6213 46.4882 13.71C46.4882 14.7833 46.2352 15.7417 45.7292 16.585C45.2232 17.413 44.5409 18.0647 43.6822 18.54C42.8389 19 41.8729 19.23 40.7842 19.23C39.6956 19.23 38.7219 19 37.8632 18.54C37.0046 18.0647 36.3222 17.413 35.8162 16.585C35.3256 15.7417 35.0802 14.7833 35.0802 13.71ZM37.6332 13.71C37.6332 14.3693 37.7712 14.952 38.0472 15.458C38.3232 15.9487 38.6989 16.3397 39.1742 16.631C39.6496 16.907 40.1862 17.045 40.7842 17.045C41.3669 17.045 41.8959 16.907 42.3712 16.631C42.8619 16.3397 43.2452 15.9487 43.5212 15.458C43.7972 14.952 43.9352 14.3693 43.9352 13.71C43.9352 13.0507 43.7972 12.468 43.5212 11.962C43.2452 11.456 42.8619 11.065 42.3712 10.789C41.8959 10.513 41.3669 10.375 40.7842 10.375C40.1862 10.375 39.6496 10.513 39.1742 10.789C38.6989 11.065 38.3232 11.456 38.0472 11.962C37.7712 12.468 37.6332 13.0507 37.6332 13.71ZM49.3282 15.527C49.6655 15.895 50.0028 16.217 50.3402 16.493C50.6928 16.7537 51.0455 16.953 51.3982 17.091C51.7508 17.2137 52.1035 17.275 52.4562 17.275C52.9008 17.275 53.2458 17.1753 53.4912 16.976C53.7518 16.7767 53.8822 16.5007 53.8822 16.148C53.8822 15.8413 53.7825 15.5807 53.5832 15.366C53.3838 15.136 53.1078 14.9443 52.7552 14.791C52.4025 14.6223 51.9885 14.4537 51.5132 14.285C51.0378 14.101 50.5625 13.8863 50.0872 13.641C49.6272 13.3803 49.2438 13.043 48.9372 12.629C48.6458 12.215 48.5002 11.6937 48.5002 11.065C48.5002 10.421 48.6612 9.88433 48.9832 9.455C49.3205 9.02567 49.7652 8.71133 50.3172 8.512C50.8845 8.29733 51.4902 8.19 52.1342 8.19C52.7168 8.19 53.2612 8.27433 53.7672 8.443C54.2885 8.61167 54.7562 8.834 55.1702 9.11C55.5842 9.386 55.9368 9.70033 56.2282 10.053L54.8482 11.525C54.4955 11.111 54.0738 10.7737 53.5832 10.513C53.0925 10.2523 52.5865 10.122 52.0652 10.122C51.7125 10.122 51.4212 10.1987 51.1912 10.352C50.9612 10.5053 50.8462 10.7277 50.8462 11.019C50.8462 11.2643 50.9458 11.4867 51.1452 11.686C51.3598 11.87 51.6358 12.0387 51.9732 12.192C52.3258 12.3453 52.7168 12.5063 53.1462 12.675C53.7288 12.905 54.2655 13.158 54.7562 13.434C55.2468 13.71 55.6378 14.0473 55.9292 14.446C56.2358 14.8447 56.3892 15.366 56.3892 16.01C56.3892 17.0067 56.0442 17.8117 55.3542 18.425C54.6795 19.023 53.7595 19.322 52.5942 19.322C51.8735 19.322 51.2065 19.2147 50.5932 19C49.9952 18.77 49.4662 18.4787 49.0062 18.126C48.5615 17.758 48.1858 17.3747 47.8792 16.976L49.3282 15.527ZM65.4012 12.56C65.4012 11.778 65.2402 11.1877 64.9182 10.789C64.5962 10.3903 64.0979 10.191 63.4232 10.191C62.9632 10.191 62.5569 10.2907 62.2042 10.49C61.8516 10.674 61.5756 10.95 61.3762 11.318C61.1769 11.6707 61.0772 12.0847 61.0772 12.56V19H58.5932V8.42H61.0772V10.053C61.4146 9.42433 61.8439 8.95667 62.3652 8.65C62.9019 8.34333 63.5382 8.19 64.2742 8.19C65.4702 8.19 66.3826 8.558 67.0112 9.294C67.6399 10.0147 67.9542 11.0113 67.9542 12.284V19H65.4012V12.56ZM70.3214 13.71C70.3214 12.6213 70.5668 11.663 71.0574 10.835C71.5634 10.007 72.2458 9.363 73.1044 8.903C73.9631 8.42767 74.9368 8.19 76.0254 8.19C77.1141 8.19 78.0801 8.42767 78.9234 8.903C79.7821 9.363 80.4644 10.007 80.9704 10.835C81.4764 11.663 81.7294 12.6213 81.7294 13.71C81.7294 14.7833 81.4764 15.7417 80.9704 16.585C80.4644 17.413 79.7821 18.0647 78.9234 18.54C78.0801 19 77.1141 19.23 76.0254 19.23C74.9368 19.23 73.9631 19 73.1044 18.54C72.2458 18.0647 71.5634 17.413 71.0574 16.585C70.5668 15.7417 70.3214 14.7833 70.3214 13.71ZM72.8744 13.71C72.8744 14.3693 73.0124 14.952 73.2884 15.458C73.5644 15.9487 73.9401 16.3397 74.4154 16.631C74.8908 16.907 75.4274 17.045 76.0254 17.045C76.6081 17.045 77.1371 16.907 77.6124 16.631C78.1031 16.3397 78.4864 15.9487 78.7624 15.458C79.0384 14.952 79.1764 14.3693 79.1764 13.71C79.1764 13.0507 79.0384 12.468 78.7624 11.962C78.4864 11.456 78.1031 11.065 77.6124 10.789C77.1371 10.513 76.6081 10.375 76.0254 10.375C75.4274 10.375 74.8908 10.513 74.4154 10.789C73.9401 11.065 73.5644 11.456 73.2884 11.962C73.0124 12.468 72.8744 13.0507 72.8744 13.71ZM82.1395 8.42H84.8535L87.6135 15.251L90.3735 8.42H93.1105L87.6135 19.966L82.1395 8.42ZM93.5236 13.71C93.5236 12.6213 93.7689 11.663 94.2596 10.835C94.7656 10.007 95.4479 9.363 96.3066 8.903C97.1652 8.42767 98.1389 8.19 99.2276 8.19C100.316 8.19 101.282 8.42767 102.126 8.903C102.984 9.363 103.667 10.007 104.173 10.835C104.679 11.663 104.932 12.6213 104.932 13.71C104.932 14.7833 104.679 15.7417 104.173 16.585C103.667 17.413 102.984 18.0647 102.126 18.54C101.282 19 100.316 19.23 99.2276 19.23C98.1389 19.23 97.1652 19 96.3066 18.54C95.4479 18.0647 94.7656 17.413 94.2596 16.585C93.7689 15.7417 93.5236 14.7833 93.5236 13.71ZM96.0766 13.71C96.0766 14.3693 96.2146 14.952 96.4906 15.458C96.7666 15.9487 97.1422 16.3397 97.6176 16.631C98.0929 16.907 98.6296 17.045 99.2276 17.045C99.8102 17.045 100.339 16.907 100.815 16.631C101.305 16.3397 101.689 15.9487 101.965 15.458C102.241 14.952 102.379 14.3693 102.379 13.71C102.379 13.0507 102.241 12.468 101.965 11.962C101.689 11.456 101.305 11.065 100.815 10.789C100.339 10.513 99.8102 10.375 99.2276 10.375C98.6296 10.375 98.0929 10.513 97.6176 10.789C97.1422 11.065 96.7666 11.456 96.4906 11.962C96.2146 12.468 96.0766 13.0507 96.0766 13.71Z" fill="#010101"/>
</svg>
